<?xml version="1.0" encoding="UTF-8"?><svg id="Layer_2" xmlns="http://www.w3.org/2000/svg" xmlns:xlink="http://www.w3.org/1999/xlink" viewBox="0 0 329.08 39.95"><defs><linearGradient id="linear-gradient" x1="51.84" y1="97.98" x2="96.2" y2="97.98" gradientTransform="translate(-34.12 -79.28) rotate(9.6)" gradientUnits="userSpaceOnUse"><stop offset="0" stop-color="#e6e6f9"/><stop offset="1" stop-color="#5739fd"/></linearGradient><linearGradient id="linear-gradient-2" x1="108.33" y1="76.25" x2="63.97" y2="76.25" gradientTransform="translate(-34.12 -79.28) rotate(9.6)" gradientUnits="userSpaceOnUse"><stop offset="0" stop-color="#e6e6f9"/><stop offset="1" stop-color="#5739fd"/></linearGradient></defs><g id="Layer_1-2"><g><g><path d="m38.34,36.34c5.1-3.62,7.81-9.33,7.85-15.14-.1-.13-.24-.22-.42-.22l-36.49.25c-.12,0-.24.02-.36.02C3.93,21.49-.03,25.62,0,30.66c.04,5.17,4.25,9.32,9.42,9.29l17.98-.16c3.79.02,7.62-1.08,10.94-3.44Z" style="fill:url(#linear-gradient);"/><path d="m22.27,3.6c-5.1,3.62-7.81,9.33-7.85,15.14.1.13.24.22.42.22l36.49-.25c.12,0,.24-.02.36-.02,4.99-.23,8.96-4.35,8.92-9.4C60.58,4.12,56.37-.04,51.2,0l-17.98.16c-3.79-.02-7.62,1.08-10.94,3.44Z" style="fill:url(#linear-gradient-2);"/></g><g><path d="m83.01,27.29c.4.46.85.92,1.35,1.39.5.47,1.06.89,1.69,1.26.63.37,1.33.67,2.1.9.77.23,1.62.34,2.53.34,1.89,0,3.36-.43,4.42-1.28,1.06-.85,1.59-2.01,1.59-3.46,0-1.56-.6-2.74-1.8-3.52-1.2-.78-2.93-1.42-5.19-1.9-1.23-.26-2.35-.61-3.35-1.07-1-.45-1.87-1.02-2.6-1.71-.73-.68-1.29-1.47-1.69-2.37-.4-.9-.6-1.91-.6-3.05,0-1.05.2-2.05.6-2.99.4-.94,1-1.76,1.8-2.48.8-.71,1.8-1.28,3-1.71,1.2-.43,2.59-.64,4.16-.64,1.4,0,2.61.15,3.63.45,1.01.3,1.88.66,2.59,1.09s1.29.87,1.72,1.32c.43.46.76.83.99,1.11l-2.75,2.52c-.17-.2-.43-.46-.77-.79-.34-.33-.78-.65-1.31-.96-.53-.31-1.15-.58-1.85-.79-.7-.21-1.51-.32-2.42-.32s-1.7.12-2.36.36c-.66.24-1.2.55-1.63.94-.43.38-.74.82-.94,1.3s-.3.97-.3,1.45c0,.71.15,1.32.45,1.81s.74.94,1.31,1.32c.57.38,1.28.71,2.12.98.84.27,1.81.53,2.9.79,1.06.26,2.1.59,3.11,1,1.01.41,1.92.97,2.72,1.66.8.7,1.44,1.55,1.91,2.56.47,1.01.71,2.24.71,3.69,0,1.22-.26,2.35-.77,3.37-.51,1.02-1.22,1.91-2.12,2.67-.9.75-1.97,1.34-3.2,1.75-1.23.41-2.56.62-3.99.62-1.34,0-2.57-.16-3.67-.47s-2.1-.71-3-1.19c-.9-.48-1.69-1.02-2.36-1.6-.67-.58-1.22-1.16-1.65-1.73l2.92-2.65Z" style="fill:#1c1b1a; stroke:#1c1b1a; stroke-miterlimit:10; stroke-width:.51px;"/><path d="m124.33,31.3c-.23.26-.57.58-1.03.98-.46.4-1.05.78-1.78,1.15-.73.37-1.59.69-2.57.96-.99.27-2.11.4-3.37.4-1.54,0-2.96-.26-4.25-.77-1.29-.51-2.39-1.24-3.3-2.18-.92-.94-1.62-2.06-2.12-3.37-.5-1.31-.75-2.76-.75-4.35,0-1.45.24-2.81.73-4.08.49-1.27,1.17-2.36,2.06-3.29.89-.92,1.94-1.66,3.15-2.2,1.22-.54,2.55-.81,4.01-.81,1.72,0,3.19.33,4.42.98,1.23.65,2.24,1.52,3.02,2.6.79,1.08,1.37,2.32,1.74,3.71.37,1.39.56,2.85.56,4.35h-15.75c.03.88.22,1.69.58,2.43.36.74.84,1.38,1.44,1.92.6.54,1.29.97,2.06,1.28.77.31,1.59.47,2.45.47,1.69,0,3.07-.28,4.16-.85,1.09-.57,1.87-1.12,2.36-1.66l2.19,2.3Zm-3.48-8.75c-.11-1.54-.66-2.85-1.63-3.93-.97-1.08-2.35-1.62-4.12-1.62-.92,0-1.74.16-2.47.47-.73.31-1.35.73-1.87,1.24s-.92,1.1-1.2,1.77c-.29.67-.44,1.36-.47,2.07h11.76Z" style="fill:#1c1b1a; stroke:#1c1b1a; stroke-miterlimit:10; stroke-width:.51px;"/><path d="m129.13,5.74h3.86v28.47h-3.86V5.74Z" style="fill:#1c1b1a; stroke:#1c1b1a; stroke-miterlimit:10; stroke-width:.51px;"/><path d="m138.32,5.74h3.86v28.47h-3.86V5.74Z" style="fill:#1c1b1a; stroke:#1c1b1a; stroke-miterlimit:10; stroke-width:.51px;"/><path d="m165.69,31.3c-.23.26-.57.58-1.03.98-.46.4-1.05.78-1.78,1.15-.73.37-1.59.69-2.57.96-.99.27-2.11.4-3.37.4-1.54,0-2.96-.26-4.25-.77-1.29-.51-2.39-1.24-3.3-2.18-.92-.94-1.62-2.06-2.12-3.37-.5-1.31-.75-2.76-.75-4.35,0-1.45.24-2.81.73-4.08.49-1.27,1.17-2.36,2.06-3.29.89-.92,1.94-1.66,3.15-2.2,1.22-.54,2.55-.81,4.01-.81,1.72,0,3.19.33,4.42.98,1.23.65,2.24,1.52,3.02,2.6.79,1.08,1.37,2.32,1.74,3.71.37,1.39.56,2.85.56,4.35h-15.75c.03.88.22,1.69.58,2.43.36.74.84,1.38,1.44,1.92.6.54,1.29.97,2.06,1.28.77.31,1.59.47,2.45.47,1.69,0,3.07-.28,4.16-.85,1.09-.57,1.87-1.12,2.36-1.66l2.19,2.3Zm-3.48-8.75c-.11-1.54-.66-2.85-1.63-3.93-.97-1.08-2.35-1.62-4.12-1.62-.92,0-1.74.16-2.47.47-.73.31-1.35.73-1.87,1.24s-.92,1.1-1.2,1.77c-.29.67-.44,1.36-.47,2.07h11.76Z" style="fill:#1c1b1a; stroke:#1c1b1a; stroke-miterlimit:10; stroke-width:.51px;"/><path d="m170.49,18.42v-2.16c0-.61-.01-1.24-.04-1.9h3.69l.13,3.2c.23-.34.53-.72.9-1.13.37-.41.82-.79,1.35-1.13.53-.34,1.14-.63,1.84-.87.7-.24,1.51-.36,2.42-.36.43,0,.82.03,1.18.09.36.06.69.14,1.01.26l-.86,3.59c-.51-.2-1.17-.3-1.97-.3s-1.59.16-2.3.47c-.7.31-1.31.75-1.82,1.3-.52.55-.92,1.2-1.22,1.94s-.45,1.52-.45,2.35v10.46h-3.86v-15.79Z" style="fill:#1c1b1a; stroke:#1c1b1a; stroke-miterlimit:10; stroke-width:.51px;"/><path d="m194.48,5.74h9.05c1.95,0,3.55.27,4.83.81,1.27.54,2.29,1.22,3.05,2.05.76.83,1.29,1.75,1.59,2.77s.45,2.02.45,2.99c0,1.42-.24,2.68-.73,3.76-.49,1.08-1.16,1.98-2.02,2.71-.86.73-1.88,1.27-3.07,1.64-1.19.37-2.48.55-3.88.55h-5.19v11.18h-4.08V5.74Zm9.22,13.79c1.77,0,3.14-.45,4.1-1.34.96-.9,1.44-2.14,1.44-3.73s-.49-2.89-1.48-3.82c-.99-.92-2.34-1.39-4.06-1.39h-5.15v10.29h5.15Z" style="fill:#1c1b1a; stroke:#1c1b1a; stroke-miterlimit:10; stroke-width:.51px;"/><path d="m228.93,31.82c-.74,1-1.72,1.74-2.94,2.22-1.22.48-2.47.73-3.75.73-.83,0-1.65-.11-2.47-.32-.82-.21-1.56-.57-2.23-1.07-.67-.5-1.22-1.14-1.63-1.92-.42-.78-.62-1.74-.62-2.88,0-2.13.75-3.84,2.25-5.12,1.5-1.28,3.67-1.92,6.5-1.92.46,0,.94.01,1.46.04s1,.06,1.46.09.86.06,1.2.09.59.06.73.09v-.73c0-1.48-.45-2.54-1.35-3.18-.9-.64-2.12-.96-3.67-.96s-2.72.21-3.6.62c-.89.41-1.63.83-2.23,1.26l-1.8-2.6c.34-.28.76-.57,1.25-.85.49-.28,1.06-.55,1.72-.79.66-.24,1.4-.44,2.23-.6s1.79-.24,2.88-.24c2.57,0,4.6.62,6.07,1.86,1.47,1.24,2.21,3,2.21,5.27v11.54c0,.7.01,1.29.04,1.77h-3.6l-.09-2.39Zm-.04-7c-.11-.03-.34-.06-.67-.11-.33-.04-.71-.08-1.14-.11-.43-.03-.89-.06-1.37-.09-.49-.03-.96-.04-1.42-.04-1.09,0-1.97.13-2.64.38-.67.26-1.2.58-1.59.96-.39.38-.65.81-.79,1.28-.14.47-.21.92-.21,1.34,0,1.08.37,1.9,1.12,2.45.74.55,1.77.83,3.09.83.74,0,1.45-.13,2.12-.39.67-.26,1.26-.6,1.78-1.02.52-.43.93-.92,1.25-1.49.31-.57.47-1.15.47-1.75v-2.26Z" style="fill:#1c1b1a; stroke:#1c1b1a; stroke-miterlimit:10; stroke-width:.51px;"/><path d="m237.86,18.42v-2.16c0-.61-.01-1.24-.04-1.9h3.69l.13,3.2c.23-.34.53-.72.9-1.13.37-.41.82-.79,1.35-1.13.53-.34,1.14-.63,1.84-.87.7-.24,1.51-.36,2.42-.36.43,0,.82.03,1.18.09.36.06.69.14,1.01.26l-.86,3.59c-.51-.2-1.17-.3-1.97-.3s-1.59.16-2.3.47c-.7.31-1.31.75-1.82,1.3-.52.55-.92,1.2-1.22,1.94s-.45,1.52-.45,2.35v10.46h-3.86v-15.79Z" style="fill:#1c1b1a; stroke:#1c1b1a; stroke-miterlimit:10; stroke-width:.51px;"/><path d="m255.19,17.56h-3.6v-3.2h3.6v-6.49h3.86v6.49h5.84v3.2h-5.84v9.77c0,1.59.25,2.69.75,3.29.5.6,1.21.9,2.12.9.74,0,1.36-.11,1.84-.34.49-.23.97-.57,1.46-1.02l1.76,2.35c-.83.8-1.68,1.37-2.55,1.73-.87.36-1.91.53-3.11.53-2.12,0-3.67-.57-4.65-1.71-.99-1.14-1.48-2.92-1.48-5.34v-10.16Z" style="fill:#1c1b1a; stroke:#1c1b1a; stroke-miterlimit:10; stroke-width:.51px;"/><path d="m269.95,18.67v-2.28c0-.64-.01-1.32-.04-2.03h3.69l.13,2.99c.26-.34.57-.72.94-1.13.37-.41.83-.79,1.37-1.13.54-.34,1.18-.63,1.91-.85.73-.23,1.55-.34,2.47-.34,2.6,0,4.53.75,5.79,2.26,1.26,1.51,1.89,3.56,1.89,6.15v11.91h-3.86v-11.61c0-1.85-.4-3.21-1.2-4.08-.8-.87-1.93-1.3-3.39-1.3-1.12,0-2.05.23-2.79.68-.74.46-1.34,1.05-1.78,1.77-.44.73-.77,1.55-.97,2.48-.2.92-.3,1.87-.3,2.84v9.22h-3.86v-15.54Z" style="fill:#1c1b1a; stroke:#1c1b1a; stroke-miterlimit:10; stroke-width:.51px;"/><path d="m311.48,31.3c-.23.26-.57.58-1.03.98-.46.4-1.05.78-1.78,1.15-.73.37-1.59.69-2.57.96-.99.27-2.11.4-3.37.4-1.54,0-2.96-.26-4.25-.77-1.29-.51-2.39-1.24-3.3-2.18-.92-.94-1.62-2.06-2.12-3.37-.5-1.31-.75-2.76-.75-4.35,0-1.45.24-2.81.73-4.08.49-1.27,1.17-2.36,2.06-3.29.89-.92,1.94-1.66,3.15-2.2,1.22-.54,2.55-.81,4.01-.81,1.72,0,3.19.33,4.42.98,1.23.65,2.24,1.52,3.02,2.6.79,1.08,1.37,2.32,1.74,3.71.37,1.39.56,2.85.56,4.35h-15.75c.03.88.22,1.69.58,2.43.36.74.84,1.38,1.44,1.92.6.54,1.29.97,2.06,1.28.77.31,1.59.47,2.45.47,1.69,0,3.07-.28,4.16-.85,1.09-.57,1.87-1.12,2.36-1.66l2.19,2.3Zm-3.48-8.75c-.11-1.54-.66-2.85-1.63-3.93-.97-1.08-2.35-1.62-4.12-1.62-.92,0-1.74.16-2.47.47-.73.31-1.35.73-1.87,1.24s-.92,1.1-1.2,1.77c-.29.67-.44,1.36-.47,2.07h11.76Z" style="fill:#1c1b1a; stroke:#1c1b1a; stroke-miterlimit:10; stroke-width:.51px;"/><path d="m316.29,18.42v-2.16c0-.61-.01-1.24-.04-1.9h3.69l.13,3.2c.23-.34.53-.72.9-1.13.37-.41.82-.79,1.35-1.13.53-.34,1.14-.63,1.84-.87.7-.24,1.51-.36,2.42-.36.43,0,.82.03,1.18.09.36.06.69.14,1.01.26l-.86,3.59c-.51-.2-1.17-.3-1.97-.3s-1.59.16-2.3.47c-.7.31-1.31.75-1.82,1.3-.52.55-.92,1.2-1.22,1.94-.3.74-.45,1.52-.45,2.35v10.46h-3.86v-15.79Z" style="fill:#1c1b1a; stroke:#1c1b1a; stroke-miterlimit:10; stroke-width:.51px;"/></g></g></g></svg>