<?xml version="1.0" encoding="UTF-8"?><svg id="Layer_2" xmlns="http://www.w3.org/2000/svg" xmlns:xlink="http://www.w3.org/1999/xlink" viewBox="0 0 60.62 39.95"><defs><linearGradient id="linear-gradient" x1="51.84" y1="97.98" x2="96.2" y2="97.98" gradientTransform="translate(-34.12 -79.28) rotate(9.6)" gradientUnits="userSpaceOnUse"><stop offset="0" stop-color="#e6e6f9"/><stop offset="1" stop-color="#5739fd"/></linearGradient><linearGradient id="linear-gradient-2" x1="108.33" y1="76.25" x2="63.97" y2="76.25" gradientTransform="translate(-34.12 -79.28) rotate(9.6)" gradientUnits="userSpaceOnUse"><stop offset="0" stop-color="#e6e6f9"/><stop offset="1" stop-color="#5739fd"/></linearGradient></defs><g id="Layer_1-2"><g><path d="m38.34,36.34c5.1-3.62,7.81-9.33,7.85-15.14-.1-.13-.24-.22-.42-.22l-36.49.25c-.12,0-.24.02-.36.02C3.93,21.49-.03,25.62,0,30.66c.04,5.17,4.25,9.32,9.42,9.29l17.98-.16c3.79.02,7.62-1.08,10.94-3.44Z" style="fill:url(#linear-gradient);"/><path d="m22.27,3.6c-5.1,3.62-7.81,9.33-7.85,15.14.1.13.24.22.42.22l36.49-.25c.12,0,.24-.02.36-.02,4.99-.23,8.96-4.35,8.92-9.4C60.58,4.12,56.37-.04,51.2,0l-17.98.16c-3.79-.02-7.62,1.08-10.94,3.44Z" style="fill:url(#linear-gradient-2);"/></g></g></svg>